REM DIRINDEX 1\2,1\3,1\4,1\5
REM DIRNAME folder01,folder02,folder03,folder04,folder05
TITLE ""
FILE "1Q_j_2339-2352.mp3" MP3
  TRACK 01 AUDIO
    TITLE "3:cjc004_0716"
    INDEX 01 00:00:00
  TRACK 02 AUDIO
    TITLE "0:"
    INDEX 01 00:01:05
  TRACK 03 AUDIO
    TITLE "4:cjc004_0717"
    INDEX 01 00:01:38
  TRACK 04 AUDIO
    TITLE "0:"
    INDEX 01 00:02:53
  TRACK 05 AUDIO
    TITLE "5:cjc004_0718"
    INDEX 01 00:03:06
  TRACK 06 AUDIO
    TITLE "0:"
    INDEX 01 00:07:49
  TRACK 07 AUDIO
    TITLE "3:cjc004_0719"
    INDEX 01 00:08:38
  TRACK 08 AUDIO
    TITLE "0:"
    INDEX 01 00:10:45
  TRACK 09 AUDIO
    TITLE "4:cjc004_0720"
    INDEX 01 00:11:03
  TRACK 10 AUDIO
    TITLE "0:"
    INDEX 01 00:14:02
  TRACK 11 AUDIO
    TITLE "5:cjc004_0721"
    INDEX 01 00:14:27
  TRACK 12 AUDIO
    TITLE "0:"
    INDEX 01 00:17:21
  TRACK 13 AUDIO
    TITLE "3:cjc004_0722"
    INDEX 01 00:17:74
  TRACK 14 AUDIO
    TITLE "0:"
    INDEX 01 00:19:28
  TRACK 15 AUDIO
    TITLE "4:cjc004_0723"
    INDEX 01 00:19:56
  TRACK 16 AUDIO
    TITLE "0:"
    INDEX 01 00:21:09
  TRACK 17 AUDIO
    TITLE "5:cjc004_0724"
    INDEX 01 00:21:33
  TRACK 18 AUDIO
    TITLE "0:"
    INDEX 01 00:28:06
  TRACK 19 AUDIO
    TITLE "3:cjc004_0725"
    INDEX 01 00:28:62
  TRACK 20 AUDIO
    TITLE "0:"
    INDEX 01 00:30:10
  TRACK 21 AUDIO
    TITLE "4:cjc004_0726"
    INDEX 01 00:30:34
  TRACK 22 AUDIO
    TITLE "0:"
    INDEX 01 00:32:50
  TRACK 23 AUDIO
    TITLE "5:cjc004_0727"
    INDEX 01 00:33:09
  TRACK 24 AUDIO
    TITLE "0:"
    INDEX 01 00:39:60
  TRACK 25 AUDIO
    TITLE "3:cjc004_0728"
    INDEX 01 00:40:38
  TRACK 26 AUDIO
    TITLE "0:"
    INDEX 01 00:41:67
  TRACK 27 AUDIO
    TITLE "4:cjc004_0729"
    INDEX 01 00:42:19
  TRACK 28 AUDIO
    TITLE "0:"
    INDEX 01 00:43:68
  TRACK 29 AUDIO
    TITLE "5:cjc004_0730"
    INDEX 01 00:44:18
  TRACK 30 AUDIO
    TITLE "0:"
    INDEX 01 00:50:74
  TRACK 31 AUDIO
    TITLE "3:cjc004_0731"
    INDEX 01 00:51:50
  TRACK 32 AUDIO
    TITLE "0:"
    INDEX 01 00:53:11
  TRACK 33 AUDIO
    TITLE "4:cjc004_0732"
    INDEX 01 00:53:33
  TRACK 34 AUDIO
    TITLE "0:"
    INDEX 01 00:54:30
  TRACK 35 AUDIO
    TITLE "5:cjc004_0733"
    INDEX 01 00:54:56
  TRACK 36 AUDIO
    TITLE "0:"
    INDEX 01 00:58:67
  TRACK 37 AUDIO
    TITLE "3:cjc004_0734"
    INDEX 01 00:59:43
  TRACK 38 AUDIO
    TITLE "0:"
    INDEX 01 01:00:60
  TRACK 39 AUDIO
    TITLE "4:cjc004_0735"
    INDEX 01 01:01:15
  TRACK 40 AUDIO
    TITLE "0:"
    INDEX 01 01:02:36
  TRACK 41 AUDIO
    TITLE "5:cjc004_0736"
    INDEX 01 01:02:61
  TRACK 42 AUDIO
    TITLE "0:"
    INDEX 01 01:07:35
  TRACK 43 AUDIO
    TITLE "3:cjc004_0737"
    INDEX 01 01:08:11
  TRACK 44 AUDIO
    TITLE "0:"
    INDEX 01 01:09:34
  TRACK 45 AUDIO
    TITLE "4:cjc004_0738"
    INDEX 01 01:09:65
  TRACK 46 AUDIO
    TITLE "0:"
    INDEX 01 01:11:21
  TRACK 47 AUDIO
    TITLE "5:cjc004_0739"
    INDEX 01 01:11:45
  TRACK 48 AUDIO
    TITLE "0:"
    INDEX 01 01:19:07
  TRACK 49 AUDIO
    TITLE "3:cjc004_0740"
    INDEX 01 01:19:60
  TRACK 50 AUDIO
    TITLE "0:"
    INDEX 01 01:21:06
  TRACK 51 AUDIO
    TITLE "4:cjc004_0741"
    INDEX 01 01:21:37
  TRACK 52 AUDIO
    TITLE "0:"
    INDEX 01 01:23:18
  TRACK 53 AUDIO
    TITLE "5:cjc004_0742"
    INDEX 01 01:23:44
  TRACK 54 AUDIO
    TITLE "0:"
    INDEX 01 01:27:67
  TRACK 55 AUDIO
    TITLE "3:cjc004_0743"
    INDEX 01 01:28:43
  TRACK 56 AUDIO
    TITLE "0:"
    INDEX 01 01:29:72
  TRACK 57 AUDIO
    TITLE "4:cjc004_0744"
    INDEX 01 01:30:22
  TRACK 58 AUDIO
    TITLE "0:"
    INDEX 01 01:31:49
  TRACK 59 AUDIO
    TITLE "5:cjc004_0745"
    INDEX 01 01:31:71
  TRACK 60 AUDIO
    TITLE "0:"
    INDEX 01 01:35:65
  TRACK 61 AUDIO
    TITLE "3:cjc004_0746"
    INDEX 01 01:36:48
  TRACK 62 AUDIO
    TITLE "0:"
    INDEX 01 01:37:71
  TRACK 63 AUDIO
    TITLE "4:cjc004_0747"
    INDEX 01 01:38:24
  TRACK 64 AUDIO
    TITLE "0:"
    INDEX 01 01:39:45
  TRACK 65 AUDIO
    TITLE "5:cjc004_0748"
    INDEX 01 01:39:72
  TRACK 66 AUDIO
    TITLE "0:"
    INDEX 01 01:44:05
  TRACK 67 AUDIO
    TITLE "3:cjc004_0749"
    INDEX 01 01:44:64
  TRACK 68 AUDIO
    TITLE "0:"
    INDEX 01 01:46:21
  TRACK 69 AUDIO
    TITLE "4:cjc004_0750"
    INDEX 01 01:46:51
  TRACK 70 AUDIO
    TITLE "0:"
    INDEX 01 01:48:26
  TRACK 71 AUDIO
    TITLE "5:cjc004_0751"
    INDEX 01 01:48:54
  TRACK 72 AUDIO
    TITLE "0:"
    INDEX 01 01:54:03
  TRACK 73 AUDIO
    TITLE "3:cjc004_0752"
    INDEX 01 01:54:58
  TRACK 74 AUDIO
    TITLE "0:"
    INDEX 01 01:56:04
  TRACK 75 AUDIO
    TITLE "4:cjc004_0753"
    INDEX 01 01:56:32
  TRACK 76 AUDIO
    TITLE "0:"
    INDEX 01 01:57:35
  TRACK 77 AUDIO
    TITLE "5:cjc004_0754"
    INDEX 01 01:57:58
  TRACK 78 AUDIO
    TITLE "0:"
    INDEX 01 02:02:64
  TRACK 79 AUDIO
    TITLE "3:cjc004_0755"
    INDEX 01 02:03:43
  TRACK 80 AUDIO
    TITLE "0:"
    INDEX 01 02:04:70
  TRACK 81 AUDIO
    TITLE "4:cjc004_0756"
    INDEX 01 02:05:23
  TRACK 82 AUDIO
    TITLE "0:"
    INDEX 01 02:06:20
  TRACK 83 AUDIO
    TITLE "5:cjc004_0757"
    INDEX 01 02:06:42
  TRACK 84 AUDIO
    TITLE "0:"
    INDEX 01 02:14:71
